<svg xmlns="http://www.w3.org/2000/svg">
<!-- Zero State symbol system: glyphs built from the mark (axis, split ring, orbit, node, frame, passage). -->
<symbol id="g-waykin" viewBox="0 0 48 48"><title>Walker and companion on a path</title><g fill="none" stroke="currentColor" stroke-linecap="round" stroke-linejoin="round"><path vector-effect="non-scaling-stroke" d="M4 38c8-5 14 3 22-1s12-3 18-5"/><circle vector-effect="non-scaling-stroke" cx="17" cy="27" r="9" stroke-dasharray="1.5 3"/><circle cx="17" cy="27" r="2.6" fill="currentColor" stroke="none"/><circle vector-effect="non-scaling-stroke" cx="24.4" cy="21.8" r="1.9"/><path vector-effect="non-scaling-stroke" d="M32 16a9 9 0 0 1 0 13M36.5 12.5a14 14 0 0 1 0 20"/></g></symbol>
<symbol id="g-patchhive" viewBox="0 0 48 48"><title>Two patched jacks in a hive cell</title><g fill="none" stroke="currentColor" stroke-linecap="round" stroke-linejoin="round"><path vector-effect="non-scaling-stroke" d="M24.00 5.00L40.45 14.50L40.45 33.50L24.00 43.00L7.55 33.50L7.55 14.50Z"/><circle vector-effect="non-scaling-stroke" cx="17" cy="19" r="3.4"/><circle cx="17" cy="19" r="1" fill="currentColor" stroke="none"/><circle vector-effect="non-scaling-stroke" cx="31" cy="27" r="3.4"/><circle cx="31" cy="27" r="1" fill="currentColor" stroke="none"/><path vector-effect="non-scaling-stroke" d="M17 22.4C17 36 31 38 31 30.4"/></g></symbol>
<symbol id="g-psyfi" viewBox="0 0 48 48"><title>A field lattice bending around a node</title><g fill="none" stroke="currentColor" stroke-linecap="round" stroke-linejoin="round"><circle cx="7.89" cy="7.89" r="1.25" fill="currentColor" stroke="none"/><circle cx="7.50" cy="15.75" r="1.25" fill="currentColor" stroke="none"/><circle cx="7.12" cy="24.00" r="1.25" fill="currentColor" stroke="none"/><circle cx="7.50" cy="32.25" r="1.25" fill="currentColor" stroke="none"/><circle cx="7.89" cy="40.11" r="1.25" fill="currentColor" stroke="none"/><circle cx="15.75" cy="7.50" r="1.25" fill="currentColor" stroke="none"/><circle cx="14.49" cy="14.49" r="1.25" fill="currentColor" stroke="none"/><circle cx="12.67" cy="24.00" r="1.25" fill="currentColor" stroke="none"/><circle cx="14.49" cy="33.51" r="1.25" fill="currentColor" stroke="none"/><circle cx="15.75" cy="40.50" r="1.25" fill="currentColor" stroke="none"/><circle cx="24.00" cy="7.12" r="1.25" fill="currentColor" stroke="none"/><circle cx="24.00" cy="12.67" r="1.25" fill="currentColor" stroke="none"/><circle cx="24.00" cy="35.33" r="1.25" fill="currentColor" stroke="none"/><circle cx="24.00" cy="40.88" r="1.25" fill="currentColor" stroke="none"/><circle cx="32.25" cy="7.50" r="1.25" fill="currentColor" stroke="none"/><circle cx="33.51" cy="14.49" r="1.25" fill="currentColor" stroke="none"/><circle cx="35.33" cy="24.00" r="1.25" fill="currentColor" stroke="none"/><circle cx="33.51" cy="33.51" r="1.25" fill="currentColor" stroke="none"/><circle cx="32.25" cy="40.50" r="1.25" fill="currentColor" stroke="none"/><circle cx="40.11" cy="7.89" r="1.25" fill="currentColor" stroke="none"/><circle cx="40.50" cy="15.75" r="1.25" fill="currentColor" stroke="none"/><circle cx="40.88" cy="24.00" r="1.25" fill="currentColor" stroke="none"/><circle cx="40.50" cy="32.25" r="1.25" fill="currentColor" stroke="none"/><circle cx="40.11" cy="40.11" r="1.25" fill="currentColor" stroke="none"/><circle vector-effect="non-scaling-stroke" cx="24" cy="24" r="3.6"/><circle cx="24" cy="24" r="1" fill="currentColor" stroke="none"/><circle vector-effect="non-scaling-stroke" cx="24" cy="24" r="13" stroke-dasharray="1 2.6"/></g></symbol>
<symbol id="g-surveillance" viewBox="0 0 48 48"><title>A camera reticle with a blind spot</title><g fill="none" stroke="currentColor" stroke-linecap="round" stroke-linejoin="round"><path vector-effect="non-scaling-stroke" d="M40 24A16 16 0 1 1 24 8"/><circle vector-effect="non-scaling-stroke" cx="24" cy="24" r="4.5"/><path vector-effect="non-scaling-stroke" d="M2 24h5M24 41v5"/><path vector-effect="non-scaling-stroke" d="M27.5 20.5L33.4 14.6" stroke-dasharray="1.5 2"/><circle cx="36" cy="12" r="2.6" fill="currentColor" stroke="none"/></g></symbol>
<symbol id="g-hexwire" viewBox="0 0 48 48"><title>A trace wired through hex cells</title><g fill="none" stroke="currentColor" stroke-linecap="round" stroke-linejoin="round"><path vector-effect="non-scaling-stroke" d="M16.00 10.00L22.93 14.00L22.93 22.00L16.00 26.00L9.07 22.00L9.07 14.00Z"/><path vector-effect="non-scaling-stroke" d="M29.86 10.00L36.79 14.00L36.79 22.00L29.86 26.00L22.93 22.00L22.93 14.00Z"/><path vector-effect="non-scaling-stroke" d="M22.93 22.00L29.86 26.00L29.86 34.00L22.93 38.00L16.00 34.00L16.00 26.00Z"/><path vector-effect="non-scaling-stroke" d="M5 43L22.93 30L29.86 18L41 7"/><circle cx="22.93" cy="30" r="1.8" fill="currentColor" stroke="none"/><circle cx="29.86" cy="18" r="1.8" fill="currentColor" stroke="none"/><circle cx="41" cy="7" r="2.6" fill="currentColor" stroke="none"/></g></symbol>
<symbol id="g-hollersports" viewBox="0 0 48 48"><title>A field with isolated halves</title><g fill="none" stroke="currentColor" stroke-linecap="round" stroke-linejoin="round"><rect vector-effect="non-scaling-stroke" x="6" y="11" width="36" height="26" rx="1.5"/><path vector-effect="non-scaling-stroke" d="M24 11v26"/><circle vector-effect="non-scaling-stroke" cx="24" cy="24" r="5"/><path vector-effect="non-scaling-stroke" d="M6 18h4v12H6M42 18h-4v12h4"/></g></symbol>
<symbol id="g-marigold" viewBox="0 0 48 48"><title>A matched triple on a shelf</title><g fill="none" stroke="currentColor" stroke-linecap="round" stroke-linejoin="round"><path vector-effect="non-scaling-stroke" d="M5 33h38M9 33v6M39 33v6"/><circle cx="13" cy="28" r="4.5" fill="currentColor" stroke="none"/><circle cx="23" cy="28" r="4.5" fill="currentColor" stroke="none"/><circle vector-effect="non-scaling-stroke" cx="33" cy="28" r="4.5" stroke-dasharray="1.5 2"/><circle cx="33" cy="13" r="4.5" fill="currentColor" stroke="none"/><path vector-effect="non-scaling-stroke" d="M33 19.5v2.5"/></g></symbol>
<symbol id="g-slosh" viewBox="0 0 48 48"><title>Water inside a watch face</title><g fill="none" stroke="currentColor" stroke-linecap="round" stroke-linejoin="round"><rect vector-effect="non-scaling-stroke" x="12" y="8" width="24" height="32" rx="8"/><path vector-effect="non-scaling-stroke" d="M12 25c4-3 8-3 12 0s8 3 12 0"/><path vector-effect="non-scaling-stroke" d="M15 31c3-1.8 6-1.8 9 0s6 1.8 9 0" stroke-dasharray="1.5 2.5"/><circle cx="24" cy="17" r="1.7" fill="currentColor" stroke="none"/><path vector-effect="non-scaling-stroke" d="M19 4h10M19 44h10"/></g></symbol>
<symbol id="g-noema" viewBox="0 0 48 48"><title>A watched world with agents inside</title><g fill="none" stroke="currentColor" stroke-linecap="round" stroke-linejoin="round"><path vector-effect="non-scaling-stroke" d="M24.00 18.00L34.39 24.00L34.39 36.00L24.00 42.00L13.61 36.00L13.61 24.00Z"/><path vector-effect="non-scaling-stroke" d="M19.5 28L28.5 27L24 35Z" stroke-dasharray="1 2"/><circle cx="19.5" cy="28" r="1.8" fill="currentColor" stroke="none"/><circle cx="28.5" cy="27" r="1.8" fill="currentColor" stroke="none"/><circle cx="24" cy="35" r="1.8" fill="currentColor" stroke="none"/><path vector-effect="non-scaling-stroke" d="M13 9.5Q24 1 35 9.5Q24 18 13 9.5Z"/><circle cx="24" cy="9.5" r="2.2" fill="currentColor" stroke="none"/></g></symbol>
<symbol id="g-autogive" viewBox="0 0 48 48"><title>An evidence chain from intent to impact</title><g fill="none" stroke="currentColor" stroke-linecap="round" stroke-linejoin="round"><path vector-effect="non-scaling-stroke" d="M11 24h4.5M21.5 24h4.5M32 24h4.4"/><circle vector-effect="non-scaling-stroke" cx="8" cy="24" r="3"/><circle vector-effect="non-scaling-stroke" cx="18.5" cy="24" r="3"/><circle cx="18.5" cy="24" r="1" fill="currentColor" stroke="none"/><circle vector-effect="non-scaling-stroke" cx="29" cy="24" r="3"/><circle cx="29" cy="24" r="1.8" fill="currentColor" stroke="none"/><circle cx="40" cy="24" r="3.6" fill="currentColor" stroke="none"/><path vector-effect="non-scaling-stroke" d="M8 17q5.25-6 10.5 0M18.5 17q5.25-6 10.5 0M29 17q5.5-6 11 0" stroke-dasharray="1.2 2"/></g></symbol>
<symbol id="g-zzthis" viewBox="0 0 48 48"><title>A pen writing a code on a card</title><g fill="none" stroke="currentColor" stroke-linecap="round" stroke-linejoin="round"><rect vector-effect="non-scaling-stroke" x="6" y="11" width="36" height="26" rx="3"/><path vector-effect="non-scaling-stroke" d="M11 29h8M11 32h6.5M19.5 32h2"/><path vector-effect="non-scaling-stroke" d="M24.5 28.5l11-13.5a2 2 0 0 1 3.1 2.5l-11 13.5-3.6 1.5z"/><path vector-effect="non-scaling-stroke" d="M34.5 16.3l3 2.4"/></g></symbol>
<symbol id="g-suas" viewBox="0 0 48 48"><title>Two chevrons over a found signal</title><g fill="none" stroke="currentColor" stroke-linecap="round" stroke-linejoin="round"><path vector-effect="non-scaling-stroke" d="M11 22l13-9 13 9M11 30l13-9 13 9"/><circle vector-effect="non-scaling-stroke" cx="24" cy="38.5" r="4"/><circle cx="24" cy="38.5" r="1.3" fill="currentColor" stroke="none"/></g></symbol>
<symbol id="g-orchestra" viewBox="0 0 48 48"><title>A symbolic tree of nodes</title><g fill="none" stroke="currentColor" stroke-linecap="round" stroke-linejoin="round"><path vector-effect="non-scaling-stroke" d="M24 6L14 15L24 24L34 15ZM24 24L14 33L24 42L34 33ZM24 6V42"/><circle cx="24" cy="6" r="2.4" fill="currentColor" stroke="none"/><circle cx="14" cy="15" r="2.4" fill="currentColor" stroke="none"/><circle cx="34" cy="15" r="2.4" fill="currentColor" stroke="none"/><circle cx="24" cy="24" r="2.8" fill="currentColor" stroke="none"/><circle cx="14" cy="33" r="2.4" fill="currentColor" stroke="none"/><circle cx="34" cy="33" r="2.4" fill="currentColor" stroke="none"/><circle cx="24" cy="42" r="2.4" fill="currentColor" stroke="none"/></g></symbol>
<symbol id="g-hyperlex" viewBox="0 0 48 48"><title>A radar sweep finding new words</title><g fill="none" stroke="currentColor" stroke-linecap="round" stroke-linejoin="round"><circle vector-effect="non-scaling-stroke" cx="24" cy="24" r="18" stroke-dasharray="1.5 3"/><circle vector-effect="non-scaling-stroke" cx="24" cy="24" r="11"/><path vector-effect="non-scaling-stroke" d="M24 24L36.6 11.1"/><circle cx="24" cy="24" r="2" fill="currentColor" stroke="none"/><circle cx="14" cy="13" r="1.7" fill="currentColor" stroke="none"/><circle cx="33.5" cy="31" r="1.3" fill="currentColor" stroke="none"/><circle cx="31.4" cy="16.2" r="1.9" fill="currentColor" stroke="none"/></g></symbol>
<symbol id="g-kubrick" viewBox="0 0 48 48"><title>A one-point perspective frame</title><g fill="none" stroke="currentColor" stroke-linecap="round" stroke-linejoin="round"><rect vector-effect="non-scaling-stroke" x="5" y="9" width="38" height="30"/><rect vector-effect="non-scaling-stroke" x="19" y="19" width="10" height="10"/><path vector-effect="non-scaling-stroke" d="M5 9l14 10M43 9L29 19M5 39l14-10M43 39L29 29"/><circle cx="24" cy="24" r="1.5" fill="currentColor" stroke="none"/></g></symbol>
<symbol id="g-neon-genie" viewBox="0 0 48 48"><title>A weak signal refined into a line</title><g fill="none" stroke="currentColor" stroke-linecap="round" stroke-linejoin="round"><path vector-effect="non-scaling-stroke" d="M3 32c2-3.5 4 3.5 6 0s4 3.5 6 0"/><circle vector-effect="non-scaling-stroke" cx="21" cy="32" r="5"/><path vector-effect="non-scaling-stroke" d="M26 32H45"/><path vector-effect="non-scaling-stroke" d="M21 9.2l1.6 4.4 4.4 1.6-4.4 1.6L21 21.2l-1.6-4.4L15 15.2l4.4-1.6Z"/><path vector-effect="non-scaling-stroke" d="M21 23.5v3" stroke-dasharray="1 1.5"/></g></symbol>
<symbol id="g-sigil-forge" viewBox="0 0 48 48"><title>A sigil sealed in a ring</title><g fill="none" stroke="currentColor" stroke-linecap="round" stroke-linejoin="round"><circle vector-effect="non-scaling-stroke" cx="24" cy="24" r="18"/><circle vector-effect="non-scaling-stroke" cx="24" cy="24" r="21.5" stroke-dasharray="1 3"/><path vector-effect="non-scaling-stroke" d="M15 31L24 13l9 18Z"/><path vector-effect="non-scaling-stroke" d="M11 25h26"/><circle cx="24" cy="13" r="2" fill="currentColor" stroke="none"/><path vector-effect="non-scaling-stroke" d="M33 31c3 0 4 3 2 5"/></g></symbol>
<symbol id="g-zero" viewBox="0 0 48 48"><title>The split zero crossed by the passage</title><g fill="none" stroke="currentColor" stroke-linecap="round" stroke-linejoin="round"><path vector-effect="non-scaling-stroke" d="M4 12V4h8M36 4h8v8M44 36v8h-8M12 44H4v-8"/><path vector-effect="non-scaling-stroke" d="M13.12 32.81A14 14 0 0 1 32.81 13.12"/><path vector-effect="non-scaling-stroke" d="M34.88 15.19A14 14 0 0 1 15.19 34.88"/><path vector-effect="non-scaling-stroke" d="M5 43L43 5" stroke-dasharray="3 3" style="stroke: var(--glyph-accent, currentColor)"/></g></symbol>
<symbol id="g-frame" viewBox="0 0 48 48"><title>Intelligence held inside a frame</title><g fill="none" stroke="currentColor" stroke-linecap="round" stroke-linejoin="round"><path vector-effect="non-scaling-stroke" d="M4 13V4h9M35 4h9v9M44 35v9h-9M13 44H4v-9"/><path vector-effect="non-scaling-stroke" d="M24 17L16 30H32Z"/><circle cx="24" cy="17" r="2.6" fill="currentColor" stroke="none"/><circle cx="16" cy="30" r="2.6" fill="currentColor" stroke="none"/><circle cx="32" cy="30" r="2.6" fill="currentColor" stroke="none"/><circle vector-effect="non-scaling-stroke" cx="24" cy="25.7" r="12" stroke-dasharray="1.5 3"/></g></symbol>
<symbol id="g-orbit" viewBox="0 0 48 48"><title>A node on its orbit</title><g fill="none" stroke="currentColor" stroke-linecap="round" stroke-linejoin="round"><ellipse vector-effect="non-scaling-stroke" cx="24" cy="24" rx="19" ry="7" transform="rotate(-25 24 24)"/><circle vector-effect="non-scaling-stroke" cx="24" cy="24" r="11" stroke-dasharray="1.5 3"/><circle cx="24" cy="24" r="3" fill="currentColor" stroke="none"/><circle cx="41.2" cy="16" r="2.2" fill="currentColor" stroke="none"/></g></symbol>
<symbol id="g-pawl" viewBox="0 0 48 48"><title>Pawl ratchet gate</title><g fill="none" stroke="currentColor" stroke-linecap="round" stroke-linejoin="round"><circle vector-effect="non-scaling-stroke" cx="25" cy="25" r="13"/><path vector-effect="non-scaling-stroke" d="M25 8v4M37 13l-2.8 2.8M42 25h-4M37 37l-2.8-2.8M25 42v-4M13 37l2.8-2.8M8 25h4M13 13l2.8 2.8"/><path vector-effect="non-scaling-stroke" d="M14 14l8 8-5 5 8 8 5-5"/><circle cx="25" cy="25" r="3" fill="currentColor" stroke="none"/></g></symbol>
</svg>
